<svg width="25" height="25" viewBox="0 0 25 25" fill="none" xmlns="http://www.w3.org/2000/svg">
<path d="M7.5 21H6.5L7.1 20.2C7.5 19.65 7.75 18.95 7.9 18.1C5.4 16.95 4 14.8 4 12C4 7.7 7.25 5 12.5 5C17.75 5 21 7.7 21 12C21 16.4 17.8 19 12.5 19H12.15C11.35 19.95 9.95 21 7.5 21ZM12.5 6C7.8 6 5 8.25 5 12C5 15.2 6.95 16.7 8.6 17.35L8.95 17.5L8.9 17.9C8.8 18.7 8.65 19.4 8.35 20C10 19.8 10.95 18.95 11.5 18.25L11.65 18.05H12.5C19.25 18.05 20 13.85 20 12.05C20 8.25 17.2 6 12.5 6Z" fill="#F2F2F2"/>
</svg>
