<svg width="25" height="25" viewBox="0 0 25 25" fill="none" xmlns="http://www.w3.org/2000/svg">
<path d="M17.1815 3.73944C15.1661 3.73944 13.444 5.17598 12.4979 6.16636C11.5517 5.17598 9.83343 3.73944 7.819 3.73944C4.34689 3.73944 1.92285 6.15963 1.92285 9.62405C1.92285 13.4414 4.93343 15.9087 7.84593 18.2952C9.22093 19.4231 10.644 20.5885 11.7353 21.8808C11.919 22.0971 12.1882 22.2221 12.4709 22.2221H12.5267C12.8103 22.2221 13.0786 22.0962 13.2613 21.8808C14.3546 20.5885 15.7767 19.4221 17.1527 18.2952C20.0642 15.9096 23.0767 13.4423 23.0767 9.62405C23.0767 6.15963 20.6527 3.73944 17.1815 3.73944Z" fill="#F2F2F2"/>
</svg>
