<svg width="18" height="25" viewBox="0 0 18 25" fill="none" xmlns="http://www.w3.org/2000/svg">
<path d="M17.5 8.75C17.5 7.60093 17.2737 6.46312 16.8339 5.40152C16.3942 4.33992 15.7497 3.37533 14.9372 2.56282C14.1247 1.7503 13.1601 1.10578 12.0985 0.666054C11.0369 0.226325 9.89907 0 8.75 0C7.60093 0 6.46312 0.226325 5.40152 0.666054C4.33992 1.10578 3.37533 1.7503 2.56282 2.56282C1.7503 3.37533 1.10578 4.33992 0.666054 5.40152C0.226325 6.46312 -1.71224e-08 7.60093 0 8.75C0 10.4838 0.5125 12.0963 1.38125 13.4563H1.37125C4.32125 18.075 8.75 25 8.75 25L16.1287 13.4563H16.12C17.0205 12.0517 17.4994 10.4184 17.5 8.75ZM8.75 12.5C7.75544 12.5 6.80161 12.1049 6.09835 11.4017C5.39509 10.6984 5 9.74456 5 8.75C5 7.75544 5.39509 6.80161 6.09835 6.09835C6.80161 5.39509 7.75544 5 8.75 5C9.74456 5 10.6984 5.39509 11.4017 6.09835C12.1049 6.80161 12.5 7.75544 12.5 8.75C12.5 9.74456 12.1049 10.6984 11.4017 11.4017C10.6984 12.1049 9.74456 12.5 8.75 12.5Z" fill="#333333"/>
</svg>
