<svg width="35" height="28" viewBox="0 0 35 28" fill="none" xmlns="http://www.w3.org/2000/svg">
<g clip-path="url(#clip0)">
<path d="M34.4704 3.31668C33.5106 4.74444 32.3329 5.96153 30.9376 6.96797C30.9514 7.23789 30.9583 7.54296 30.9583 7.8832C30.9583 9.77363 30.6826 11.6663 30.1314 13.5613C29.5802 15.4564 28.7382 17.2702 27.6054 19.0029C26.4726 20.7357 25.1233 22.2707 23.5573 23.6081C21.9914 24.9454 20.1091 26.0117 17.9104 26.8071C15.7117 27.6024 13.3552 28 10.8411 28C6.91736 28 3.30399 26.9408 0.000976562 24.8222C0.587222 24.8875 1.14948 24.9201 1.68775 24.9201C4.96571 24.9201 7.89346 23.9104 10.471 21.8911C8.94262 21.8631 7.57385 21.3926 6.36468 20.4797C5.15551 19.5667 4.32338 18.4002 3.86831 16.98C4.31812 17.0657 4.76207 17.1085 5.20016 17.1085C5.83075 17.1085 6.45125 17.0263 7.06165 16.8618C5.4306 16.5351 4.0775 15.7228 3.00235 14.4247C1.92725 13.1266 1.38969 11.6284 1.38969 9.93003V9.8425C2.39084 10.3968 3.45872 10.6917 4.59334 10.7271C3.62712 10.0829 2.86105 9.24294 2.29513 8.2071C1.72917 7.17127 1.4462 6.05032 1.4462 4.84425C1.4462 3.57225 1.76494 2.38777 2.40242 1.29083C4.17617 3.46749 6.32543 5.20715 8.85021 6.5098C11.375 7.81247 14.0837 8.53594 16.9761 8.68019C16.8528 8.16606 16.791 7.62953 16.7908 7.07061C16.7908 5.11909 17.4814 3.45277 18.8626 2.07166C20.2438 0.690554 21.9102 0 23.8617 0C25.9049 0 27.6259 0.743969 29.0247 2.23191C30.6229 1.91534 32.1194 1.34275 33.514 0.514136C32.9767 2.20515 31.9413 3.50965 30.4079 4.42764C31.8173 4.26016 33.1714 3.88984 34.4704 3.31668H34.4704Z" fill="#F2F2F2"/>
</g>
<defs>
<clipPath id="clip0">
<rect width="34.4699" height="28" fill="white"/>
</clipPath>
</defs>
</svg>

