<svg width="25" height="25" viewBox="0 0 25 25" fill="none" xmlns="http://www.w3.org/2000/svg">
<path d="M14.0139 16.2451C13.9772 16.2088 13.9276 16.1884 13.876 16.1884C13.8243 16.1884 13.7747 16.2088 13.738 16.2451L10.9011 19.082C9.58765 20.3955 7.37085 20.5347 5.92065 19.082C4.46802 17.6294 4.60718 15.415 5.92065 14.1016L8.75757 11.2646C8.83325 11.189 8.83325 11.0645 8.75757 10.9888L7.78589 10.0171C7.74918 9.98074 7.69961 9.96035 7.64795 9.96035C7.59629 9.96035 7.54672 9.98074 7.51001 10.0171L4.6731 12.854C2.60767 14.9194 2.60767 18.2617 4.6731 20.3247C6.73853 22.3877 10.0808 22.3901 12.1438 20.3247L14.9807 17.4878C15.0564 17.4121 15.0564 17.2876 14.9807 17.2119L14.0139 16.2451ZM20.3274 4.67285C18.262 2.60742 14.9197 2.60742 12.8567 4.67285L10.0173 7.50977C9.98099 7.54647 9.9606 7.59605 9.9606 7.64771C9.9606 7.69936 9.98099 7.74894 10.0173 7.78564L10.9866 8.75488C11.0623 8.83057 11.1868 8.83057 11.2625 8.75488L14.0994 5.91797C15.4128 4.60449 17.6296 4.46533 19.0798 5.91797C20.5325 7.37061 20.3933 9.58496 19.0798 10.8984L16.2429 13.7354C16.2066 13.7721 16.1862 13.8216 16.1862 13.8733C16.1862 13.925 16.2066 13.9745 16.2429 14.0112L17.2146 14.9829C17.2903 15.0586 17.4148 15.0586 17.4905 14.9829L20.3274 12.146C22.3904 10.0806 22.3904 6.73828 20.3274 4.67285ZM14.8953 9.08936C14.8586 9.05301 14.809 9.03262 14.7573 9.03262C14.7057 9.03262 14.6561 9.05301 14.6194 9.08936L9.0896 14.6167C9.05325 14.6534 9.03286 14.703 9.03286 14.7546C9.03286 14.8063 9.05325 14.8559 9.0896 14.8926L10.0564 15.8594C10.1321 15.9351 10.2566 15.9351 10.3323 15.8594L15.8596 10.332C15.9353 10.2563 15.9353 10.1318 15.8596 10.0562L14.8953 9.08936Z" fill="#333333"/>
</svg>
