<svg width="58" height="58" viewBox="0 0 58 58" fill="none" xmlns="http://www.w3.org/2000/svg">
<g filter="url(#filter0_d)">
<circle cx="29" cy="29" r="25" fill="white"/>
</g>
<path d="M39.2539 27.6318H36.8808C36.7461 27.6318 36.6172 27.6904 36.5263 27.793L30.1132 35.1846V18.6875C30.1132 18.5586 30.0078 18.4531 29.8789 18.4531H28.1211C27.9922 18.4531 27.8867 18.5586 27.8867 18.6875V35.1846L21.4736 27.793C21.3857 27.6904 21.2568 27.6318 21.1191 27.6318H18.7461C18.5468 27.6318 18.4384 27.8691 18.5703 28.0186L28.2939 39.2246C28.3818 39.326 28.4905 39.4073 28.6125 39.4631C28.7346 39.5188 28.8672 39.5476 29.0014 39.5476C29.1356 39.5476 29.2682 39.5188 29.3903 39.4631C29.5124 39.4073 29.6211 39.326 29.709 39.2246L39.4297 28.0186C39.5615 27.8662 39.4531 27.6318 39.2539 27.6318Z" fill="#2F80ED"/>
<defs>
<filter id="filter0_d" x="0" y="0" width="58" height="58" filterUnits="userSpaceOnUse" color-interpolation-filters="sRGB">
<feFlood flood-opacity="0" result="BackgroundImageFix"/>
<feColorMatrix in="SourceAlpha" type="matrix" values="0 0 0 0 0 0 0 0 0 0 0 0 0 0 0 0 0 0 127 0"/>
<feOffset/>
<feGaussianBlur stdDeviation="2"/>
<feColorMatrix type="matrix" values="0 0 0 0 0.14902 0 0 0 0 0.156863 0 0 0 0 0.184314 0 0 0 0.25 0"/>
<feBlend mode="normal" in2="BackgroundImageFix" result="effect1_dropShadow"/>
<feBlend mode="normal" in="SourceGraphic" in2="effect1_dropShadow" result="shape"/>
</filter>
</defs>
</svg>
