<svg width="30" height="30" viewBox="0 0 30 30" fill="none" xmlns="http://www.w3.org/2000/svg">
<path d="M15 0C6.5625 0 0 6.5625 0 15C0 24.8438 8.90625 29.0625 10.3125 29.0625C11.25 29.0625 11.25 28.5938 11.25 28.125V25.7812C7.96875 26.7188 6.5625 24.8438 6.09375 23.4375C6.09375 23.4375 6.09375 22.9688 5.15625 22.0312C4.6875 21.5625 2.8125 20.625 4.6875 20.625C6.09375 20.625 7.03125 22.5 7.03125 22.5C8.4375 24.375 10.3125 23.9062 11.25 23.4375C11.25 22.5 12.1875 21.5625 12.1875 21.5625C8.4375 21.0938 5.625 19.6875 5.625 14.5312C5.625 12.6562 6.09375 11.25 7.03125 10.3125C7.03125 10.3125 6.09375 8.4375 7.03125 6.09375C7.03125 6.09375 9.375 6.09375 11.25 7.96875C12.6562 7.03125 17.3438 7.03125 18.75 7.96875C20.625 6.09375 22.9688 6.09375 22.9688 6.09375C23.9062 9.375 22.9688 10.3125 22.9688 10.3125C23.9062 11.25 24.375 12.6562 24.375 14.5312C24.375 19.6875 21.0938 21.0938 17.8125 21.5625C18.2812 22.0312 18.75 22.9688 18.75 24.375V28.125C18.75 28.5938 18.75 29.0625 19.6875 29.0625C21.0938 29.0625 30 24.8438 30 15C30 6.5625 23.4375 0 15 0Z" fill="#F2F2F2"/>
</svg>
