<svg width="28" height="26" viewBox="0 0 28 26" fill="none" xmlns="http://www.w3.org/2000/svg">
<path d="M13.9883 0.235353C6.74316 0.232423 0.875 6.09766 0.875 13.3369C0.875 19.0615 4.5459 23.9277 9.6582 25.7148C10.3467 25.8877 10.2412 25.3984 10.2412 25.0645V22.7939C6.26563 23.2598 6.10449 20.6289 5.83789 20.1895C5.29883 19.2695 4.02441 19.0352 4.40527 18.5957C5.31055 18.1299 6.2334 18.7129 7.30273 20.292C8.07617 21.4375 9.58496 21.2441 10.3496 21.0537C10.5166 20.3652 10.874 19.75 11.3662 19.2725C7.24707 18.5342 5.53027 16.0205 5.53027 13.0322C5.53027 11.582 6.00781 10.249 6.94531 9.17383C6.34766 7.40137 7.00098 5.88379 7.08887 5.6582C8.79102 5.50586 10.5605 6.87695 10.6982 6.98535C11.665 6.72461 12.7695 6.58692 14.0059 6.58692C15.248 6.58692 16.3555 6.73047 17.3311 6.99414C17.6621 6.74219 19.3027 5.56445 20.8848 5.70801C20.9697 5.93359 21.6084 7.41602 21.0459 9.16504C21.9951 10.2432 22.4785 11.5879 22.4785 13.041C22.4785 16.0352 20.75 18.5518 16.6191 19.2783C16.973 19.6263 17.2539 20.0412 17.4455 20.499C17.6372 20.9567 17.7357 21.4481 17.7354 21.9443V25.2402C17.7588 25.5039 17.7354 25.7646 18.1748 25.7646C23.3633 24.0156 27.0986 19.1143 27.0986 13.3398C27.0986 6.09766 21.2275 0.235353 13.9883 0.235353Z" fill="#333333"/>
</svg>
