<svg width="26" height="25" viewBox="0 0 26 25" fill="none" xmlns="http://www.w3.org/2000/svg">
<path d="M23.9522 12.3291L13.8473 2.28025C13.7745 2.2077 13.6881 2.15015 13.593 2.11088C13.4978 2.07161 13.3959 2.05139 13.2929 2.05139C13.1899 2.05139 13.0879 2.07161 12.9928 2.11088C12.8976 2.15015 12.8112 2.2077 12.7384 2.28025L2.63357 12.3291C2.33918 12.622 2.17236 13.02 2.17236 13.435C2.17236 14.2969 2.87644 14.9975 3.74243 14.9975H4.80714V22.1679C4.80714 22.6001 5.15795 22.9492 5.59217 22.9492H11.7228V17.4804H14.4704V22.9492H20.9936C21.4278 22.9492 21.7786 22.6001 21.7786 22.1679V14.9975H22.8433C23.2604 14.9975 23.6602 14.834 23.9546 14.5386C24.5655 13.9282 24.5655 12.9394 23.9522 12.3291Z" fill="#F2F2F2"/>
</svg>