<svg width="325" height="70" viewBox="0 0 325 70" fill="none" xmlns="http://www.w3.org/2000/svg">
<path d="M28.5104 58.6566C27.2913 58.6584 26.1141 58.2116 25.2031 57.4014L0 34.9975L26.6028 11.3484C27.5944 10.5001 28.8792 10.0749 30.1811 10.1641C31.483 10.2533 32.6978 10.8498 33.5645 11.8254C34.4311 12.801 34.8802 14.0777 34.8153 15.381C34.7504 16.6843 34.1766 17.9101 33.2174 18.7948L14.9924 34.9975L31.8177 49.95C32.5736 50.6208 33.1076 51.5055 33.3488 52.4869C33.59 53.4682 33.527 54.4998 33.1682 55.4445C32.8093 56.3892 32.1716 57.2024 31.3397 57.7761C30.5078 58.3498 29.521 58.6569 28.5104 58.6566ZM73.0642 58.6466L99.667 34.9975L74.4638 12.5936C73.4764 11.7165 72.1809 11.2675 70.8625 11.3455C69.544 11.4235 68.3105 12.0221 67.4334 13.0095C66.5562 13.997 66.1073 15.2924 66.1853 16.6109C66.2633 17.9294 66.8618 19.1628 67.8493 20.04L84.6746 34.9975L66.4496 51.1953C65.4615 52.0724 64.8623 53.3062 64.7839 54.6251C64.7054 55.944 65.1541 57.2401 66.0312 58.2282C66.9084 59.2163 68.1422 59.8155 69.4611 59.894C70.78 59.9725 72.0761 59.5238 73.0642 58.6466ZM49.7638 65.7045L59.7255 5.9342C59.8529 5.28097 59.848 4.60884 59.7113 3.95751C59.5746 3.30618 59.3087 2.68886 58.9294 2.14201C58.5501 1.59516 58.065 1.12987 57.5028 0.773632C56.9407 0.417393 56.3128 0.177425 55.6564 0.0679049C54.9999 -0.0416153 54.3282 -0.0184677 53.6808 0.135981C53.0334 0.29043 52.4236 0.573048 51.8873 0.96714C51.351 1.36123 50.8991 1.85881 50.5583 2.43047C50.2176 3.00213 49.9948 3.63629 49.9032 4.29549L39.9415 64.0658C39.8141 64.719 39.8189 65.3912 39.9557 66.0425C40.0924 66.6938 40.3583 67.3111 40.7376 67.858C41.1169 68.4048 41.602 68.8701 42.1642 69.2264C42.7263 69.5826 43.3542 69.8226 44.0106 69.9321C44.6671 70.0416 45.3388 70.0185 45.9862 69.864C46.6336 69.7096 47.2434 69.4269 47.7797 69.0329C48.316 68.6388 48.7679 68.1412 49.1087 67.5695C49.4494 66.9979 49.6722 66.3637 49.7638 65.7045Z" fill="#2F80ED"/>
<path d="M119 24.36C117.84 24.36 116.77 24.14 115.79 23.7C114.83 23.26 114 22.61 113.3 21.75C112.62 20.89 112.09 19.83 111.71 18.57C111.33 17.29 111.14 15.81 111.14 14.13C111.14 12.49 111.33 11.05 111.71 9.81C112.09 8.55 112.62 7.5 113.3 6.66C114 5.8 114.83 5.16 115.79 4.74C116.77 4.3 117.84 4.08 119 4.08C120.16 4.08 121.22 4.3 122.18 4.74C123.16 5.16 123.99 5.8 124.67 6.66C125.37 7.5 125.91 8.55 126.29 9.81C126.67 11.05 126.86 12.49 126.86 14.13C126.86 15.81 126.67 17.29 126.29 18.57C125.91 19.83 125.37 20.89 124.67 21.75C123.99 22.61 123.16 23.26 122.18 23.7C121.22 24.14 120.16 24.36 119 24.36ZM119 20.55C120.02 20.55 120.83 20.01 121.43 18.93C122.03 17.85 122.33 16.25 122.33 14.13C122.33 12.09 122.03 10.54 121.43 9.48C120.83 8.42 120.02 7.89 119 7.89C117.98 7.89 117.17 8.42 116.57 9.48C115.97 10.54 115.67 12.09 115.67 14.13C115.67 16.25 115.97 17.85 116.57 18.93C117.17 20.01 117.98 20.55 119 20.55ZM130.148 29.52V9.12H133.748L134.078 10.62H134.168C134.768 10.08 135.458 9.64 136.238 9.3C137.018 8.94 137.808 8.76 138.608 8.76C139.528 8.76 140.358 8.94 141.098 9.3C141.838 9.66 142.468 10.17 142.988 10.83C143.508 11.49 143.898 12.29 144.158 13.23C144.438 14.15 144.578 15.18 144.578 16.32C144.578 17.6 144.398 18.74 144.038 19.74C143.678 20.72 143.198 21.56 142.598 22.26C141.998 22.94 141.308 23.46 140.528 23.82C139.768 24.18 138.968 24.36 138.128 24.36C136.768 24.36 135.548 23.82 134.468 22.74H134.348L134.558 25.17V29.52H130.148ZM137.108 20.76C137.948 20.76 138.648 20.42 139.208 19.74C139.768 19.04 140.048 17.92 140.048 16.38C140.048 13.7 139.138 12.36 137.318 12.36C136.378 12.36 135.458 12.82 134.558 13.74V19.77C134.978 20.13 135.408 20.39 135.848 20.55C136.308 20.69 136.728 20.76 137.108 20.76ZM155.877 24.36C154.717 24.36 153.627 24.19 152.607 23.85C151.607 23.49 150.737 22.98 149.997 22.32C149.257 21.66 148.677 20.85 148.257 19.89C147.837 18.91 147.627 17.8 147.627 16.56C147.627 15.34 147.837 14.25 148.257 13.29C148.697 12.31 149.277 11.49 149.997 10.83C150.717 10.15 151.537 9.64 152.457 9.3C153.397 8.94 154.367 8.76 155.367 8.76C156.507 8.76 157.517 8.94 158.397 9.3C159.277 9.66 160.007 10.16 160.587 10.8C161.187 11.44 161.637 12.2 161.937 13.08C162.237 13.94 162.387 14.88 162.387 15.9C162.387 16.3 162.357 16.69 162.297 17.07C162.257 17.43 162.217 17.7 162.177 17.88H152.037C152.257 18.96 152.747 19.75 153.507 20.25C154.267 20.75 155.257 21 156.477 21C157.157 21 157.797 20.91 158.397 20.73C159.017 20.55 159.657 20.29 160.317 19.95L161.787 22.62C160.927 23.16 159.977 23.59 158.937 23.91C157.897 24.21 156.877 24.36 155.877 24.36ZM155.517 12.12C154.637 12.12 153.897 12.35 153.297 12.81C152.717 13.27 152.317 13.97 152.097 14.91H158.457C158.237 13.05 157.257 12.12 155.517 12.12ZM166.125 24V9.12H169.725L170.055 11.1H170.175C170.815 10.46 171.545 9.91 172.365 9.45C173.205 8.99 174.185 8.76 175.305 8.76C176.985 8.76 178.215 9.3 178.995 10.38C179.775 11.46 180.165 12.94 180.165 14.82V24H175.755V15.39C175.755 14.39 175.595 13.66 175.275 13.2C174.955 12.74 174.385 12.51 173.565 12.51C172.965 12.51 172.435 12.64 171.975 12.9C171.535 13.16 171.055 13.55 170.535 14.07V24H166.125ZM208.881 24.36C207.561 24.36 206.251 24.13 204.951 23.67C203.671 23.19 202.501 22.48 201.441 21.54L203.991 18.51C204.731 19.11 205.541 19.6 206.421 19.98C207.301 20.36 208.221 20.55 209.181 20.55C210.141 20.55 210.841 20.39 211.281 20.07C211.721 19.75 211.941 19.34 211.941 18.84C211.941 18.5 211.871 18.22 211.731 18C211.591 17.76 211.391 17.55 211.131 17.37C210.871 17.19 210.551 17.02 210.171 16.86C209.791 16.7 209.371 16.52 208.911 16.32L206.391 15.24C205.851 15.04 205.321 14.78 204.801 14.46C204.301 14.14 203.861 13.77 203.481 13.35C203.101 12.91 202.791 12.41 202.551 11.85C202.331 11.27 202.221 10.62 202.221 9.9C202.221 9.1 202.391 8.35 202.731 7.65C203.091 6.93 203.581 6.31 204.201 5.79C204.841 5.25 205.601 4.83 206.481 4.53C207.361 4.23 208.331 4.08 209.391 4.08C210.591 4.08 211.751 4.3 212.871 4.74C213.991 5.18 215.001 5.82 215.901 6.66L213.651 9.45C212.971 8.95 212.291 8.57 211.611 8.31C210.931 8.03 210.111 7.89 209.151 7.89C208.411 7.89 207.811 8.04 207.351 8.34C206.911 8.64 206.691 9.08 206.691 9.66C206.691 10.24 206.981 10.69 207.561 11.01C208.161 11.31 208.941 11.63 209.901 11.97L212.271 12.99C213.571 13.47 214.591 14.13 215.331 14.97C216.091 15.81 216.471 16.92 216.471 18.3C216.471 19.12 216.301 19.9 215.961 20.64C215.621 21.36 215.131 22 214.491 22.56C213.851 23.1 213.061 23.54 212.121 23.88C211.181 24.2 210.101 24.36 208.881 24.36ZM226.93 24.36C225.95 24.36 225 24.19 224.08 23.85C223.18 23.49 222.37 22.98 221.65 22.32C220.95 21.66 220.39 20.85 219.97 19.89C219.55 18.91 219.34 17.8 219.34 16.56C219.34 15.32 219.55 14.22 219.97 13.26C220.39 12.28 220.95 11.46 221.65 10.8C222.37 10.14 223.18 9.64 224.08 9.3C225 8.94 225.95 8.76 226.93 8.76C227.91 8.76 228.85 8.94 229.75 9.3C230.67 9.64 231.48 10.14 232.18 10.8C232.9 11.46 233.47 12.28 233.89 13.26C234.31 14.22 234.52 15.32 234.52 16.56C234.52 17.8 234.31 18.91 233.89 19.89C233.47 20.85 232.9 21.66 232.18 22.32C231.48 22.98 230.67 23.49 229.75 23.85C228.85 24.19 227.91 24.36 226.93 24.36ZM226.93 20.79C227.95 20.79 228.71 20.41 229.21 19.65C229.73 18.89 229.99 17.86 229.99 16.56C229.99 15.26 229.73 14.23 229.21 13.47C228.71 12.71 227.95 12.33 226.93 12.33C225.91 12.33 225.14 12.71 224.62 13.47C224.12 14.23 223.87 15.26 223.87 16.56C223.87 17.86 224.12 18.89 224.62 19.65C225.14 20.41 225.91 20.79 226.93 20.79ZM242.608 24.36C240.908 24.36 239.678 23.82 238.918 22.74C238.158 21.66 237.778 20.18 237.778 18.3V9.12H242.188V17.73C242.188 18.73 242.338 19.46 242.638 19.92C242.938 20.38 243.508 20.61 244.348 20.61C244.908 20.61 245.398 20.49 245.818 20.25C246.258 20.01 246.738 19.56 247.258 18.9V9.12H251.668V24H248.068L247.738 21.87H247.618C246.958 22.63 246.228 23.24 245.428 23.7C244.628 24.14 243.688 24.36 242.608 24.36ZM257.386 24V9.12H260.986L261.346 12.36H261.436C262.176 11.14 263.066 10.24 264.106 9.66C265.146 9.06 266.266 8.76 267.466 8.76C268.126 8.76 268.656 8.81 269.056 8.91C269.476 9.01 269.906 9.16 270.346 9.36L269.446 13.05C268.986 12.91 268.566 12.81 268.186 12.75C267.826 12.67 267.366 12.63 266.806 12.63C265.886 12.63 264.976 12.9 264.076 13.44C263.196 13.98 262.436 14.92 261.796 16.26V24H257.386ZM282.185 24.36C281.005 24.36 279.915 24.19 278.915 23.85C277.915 23.49 277.035 22.98 276.275 22.32C275.535 21.66 274.955 20.85 274.535 19.89C274.115 18.91 273.905 17.8 273.905 16.56C273.905 15.32 274.135 14.22 274.595 13.26C275.075 12.28 275.705 11.46 276.485 10.8C277.285 10.14 278.205 9.64 279.245 9.3C280.285 8.94 281.375 8.76 282.515 8.76C283.695 8.76 284.755 8.95 285.695 9.33C286.655 9.71 287.455 10.19 288.095 10.77L286.055 13.5C284.955 12.72 283.855 12.33 282.755 12.33C281.475 12.33 280.435 12.71 279.635 13.47C278.835 14.23 278.435 15.26 278.435 16.56C278.435 17.86 278.815 18.89 279.575 19.65C280.355 20.41 281.365 20.79 282.605 20.79C283.385 20.79 284.095 20.65 284.735 20.37C285.395 20.09 285.995 19.76 286.535 19.38L288.305 22.17C287.405 22.93 286.415 23.49 285.335 23.85C284.255 24.19 283.205 24.36 282.185 24.36ZM299.783 24.36C298.623 24.36 297.533 24.19 296.513 23.85C295.513 23.49 294.643 22.98 293.903 22.32C293.163 21.66 292.583 20.85 292.163 19.89C291.743 18.91 291.533 17.8 291.533 16.56C291.533 15.34 291.743 14.25 292.163 13.29C292.603 12.31 293.183 11.49 293.903 10.83C294.623 10.15 295.443 9.64 296.363 9.3C297.303 8.94 298.273 8.76 299.273 8.76C300.413 8.76 301.423 8.94 302.303 9.3C303.183 9.66 303.913 10.16 304.493 10.8C305.093 11.44 305.543 12.2 305.843 13.08C306.143 13.94 306.293 14.88 306.293 15.9C306.293 16.3 306.263 16.69 306.203 17.07C306.163 17.43 306.123 17.7 306.083 17.88H295.943C296.163 18.96 296.653 19.75 297.413 20.25C298.173 20.75 299.163 21 300.383 21C301.063 21 301.703 20.91 302.303 20.73C302.923 20.55 303.563 20.29 304.223 19.95L305.693 22.62C304.833 23.16 303.883 23.59 302.843 23.91C301.803 24.21 300.783 24.36 299.783 24.36ZM299.423 12.12C298.543 12.12 297.803 12.35 297.203 12.81C296.623 13.27 296.223 13.97 296.003 14.91H302.363C302.143 13.05 301.163 12.12 299.423 12.12ZM118.94 62.36C117.62 62.36 116.31 62.13 115.01 61.67C113.73 61.19 112.56 60.48 111.5 59.54L114.05 56.51C114.79 57.11 115.6 57.6 116.48 57.98C117.36 58.36 118.28 58.55 119.24 58.55C120.2 58.55 120.9 58.39 121.34 58.07C121.78 57.75 122 57.34 122 56.84C122 56.5 121.93 56.22 121.79 56C121.65 55.76 121.45 55.55 121.19 55.37C120.93 55.19 120.61 55.02 120.23 54.86C119.85 54.7 119.43 54.52 118.97 54.32L116.45 53.24C115.91 53.04 115.38 52.78 114.86 52.46C114.36 52.14 113.92 51.77 113.54 51.35C113.16 50.91 112.85 50.41 112.61 49.85C112.39 49.27 112.28 48.62 112.28 47.9C112.28 47.1 112.45 46.35 112.79 45.65C113.15 44.93 113.64 44.31 114.26 43.79C114.9 43.25 115.66 42.83 116.54 42.53C117.42 42.23 118.39 42.08 119.45 42.08C120.65 42.08 121.81 42.3 122.93 42.74C124.05 43.18 125.06 43.82 125.96 44.66L123.71 47.45C123.03 46.95 122.35 46.57 121.67 46.31C120.99 46.03 120.17 45.89 119.21 45.89C118.47 45.89 117.87 46.04 117.41 46.34C116.97 46.64 116.75 47.08 116.75 47.66C116.75 48.24 117.04 48.69 117.62 49.01C118.22 49.31 119 49.63 119.96 49.97L122.33 50.99C123.63 51.47 124.65 52.13 125.39 52.97C126.15 53.81 126.53 54.92 126.53 56.3C126.53 57.12 126.36 57.9 126.02 58.64C125.68 59.36 125.19 60 124.55 60.56C123.91 61.1 123.12 61.54 122.18 61.88C121.24 62.2 120.16 62.36 118.94 62.36ZM136.988 62.36C136.008 62.36 135.058 62.19 134.138 61.85C133.238 61.49 132.428 60.98 131.708 60.32C131.008 59.66 130.448 58.85 130.028 57.89C129.608 56.91 129.398 55.8 129.398 54.56C129.398 53.32 129.608 52.22 130.028 51.26C130.448 50.28 131.008 49.46 131.708 48.8C132.428 48.14 133.238 47.64 134.138 47.3C135.058 46.94 136.008 46.76 136.988 46.76C137.968 46.76 138.908 46.94 139.808 47.3C140.728 47.64 141.538 48.14 142.238 48.8C142.958 49.46 143.528 50.28 143.948 51.26C144.368 52.22 144.578 53.32 144.578 54.56C144.578 55.8 144.368 56.91 143.948 57.89C143.528 58.85 142.958 59.66 142.238 60.32C141.538 60.98 140.728 61.49 139.808 61.85C138.908 62.19 137.968 62.36 136.988 62.36ZM136.988 58.79C138.008 58.79 138.768 58.41 139.268 57.65C139.788 56.89 140.048 55.86 140.048 54.56C140.048 53.26 139.788 52.23 139.268 51.47C138.768 50.71 138.008 50.33 136.988 50.33C135.968 50.33 135.198 50.71 134.678 51.47C134.178 52.23 133.928 53.26 133.928 54.56C133.928 55.86 134.178 56.89 134.678 57.65C135.198 58.41 135.968 58.79 136.988 58.79ZM152.367 62V50.57H148.437V47.3L152.367 47.12V46.73C152.367 45.87 152.497 45.07 152.757 44.33C153.017 43.59 153.417 42.95 153.957 42.41C154.497 41.85 155.187 41.41 156.027 41.09C156.867 40.77 157.867 40.61 159.027 40.61C159.887 40.61 160.687 40.69 161.427 40.85C162.187 41.01 162.887 41.2 163.527 41.42L162.687 44.66C161.707 44.28 160.667 44.09 159.567 44.09C158.607 44.09 157.897 44.3 157.437 44.72C156.997 45.14 156.777 45.8 156.777 46.7V47.12H161.907V50.57H156.777V62H152.367ZM175.605 62.36C174.425 62.36 173.425 62.2 172.605 61.88C171.785 61.56 171.115 61.12 170.595 60.56C170.095 59.98 169.735 59.29 169.515 58.49C169.295 57.69 169.185 56.8 169.185 55.82V50.57H165.435V47.3L169.395 47.12L169.965 42.56H173.595V47.12H179.895V50.57H173.595V55.79C173.595 56.93 173.845 57.74 174.345 58.22C174.845 58.68 175.645 58.91 176.745 58.91C177.305 58.91 177.815 58.86 178.275 58.76C178.755 58.66 179.225 58.53 179.685 58.37L180.465 61.55C179.805 61.75 179.075 61.93 178.275 62.09C177.495 62.27 176.605 62.36 175.605 62.36ZM184.503 62L182.073 47.12H186.333L187.263 54.02C187.363 54.76 187.443 55.49 187.503 56.21C187.563 56.93 187.643 57.67 187.743 58.43H187.833C187.933 57.67 188.033 56.92 188.133 56.18C188.233 55.44 188.363 54.72 188.523 54.02L189.453 49.1H192.663L193.623 54.02C193.783 54.76 193.923 55.49 194.043 56.21C194.163 56.93 194.273 57.67 194.373 58.43H194.493C194.593 57.67 194.663 56.93 194.703 56.21C194.763 55.49 194.833 54.76 194.913 54.02L195.753 47.12H199.833L197.553 62H192.363L191.553 57.17C191.453 56.53 191.363 55.85 191.283 55.13C191.203 54.41 191.113 53.62 191.013 52.76H190.893C190.833 53.4 190.763 54.06 190.683 54.74C190.603 55.42 190.503 56.23 190.383 57.17L189.603 62H184.503ZM206.661 62.36C205.901 62.36 205.221 62.24 204.621 62C204.021 61.78 203.511 61.47 203.091 61.07C202.671 60.65 202.341 60.17 202.101 59.63C201.881 59.09 201.771 58.5 201.771 57.86C201.771 57.02 201.951 56.29 202.311 55.67C202.671 55.03 203.241 54.49 204.021 54.05C204.821 53.61 205.841 53.26 207.081 53C208.321 52.72 209.821 52.53 211.581 52.43C211.501 51.75 211.201 51.22 210.681 50.84C210.181 50.46 209.421 50.27 208.401 50.27C207.681 50.27 206.951 50.4 206.211 50.66C205.491 50.9 204.711 51.23 203.871 51.65L202.311 48.77C203.331 48.19 204.421 47.71 205.581 47.33C206.761 46.95 207.991 46.76 209.271 46.76C211.351 46.76 212.991 47.31 214.191 48.41C215.391 49.51 215.991 51.2 215.991 53.48V62H212.391L212.061 60.32H211.941C211.181 60.9 210.351 61.39 209.451 61.79C208.551 62.17 207.621 62.36 206.661 62.36ZM208.071 58.94C208.731 58.94 209.351 58.81 209.931 58.55C210.511 58.27 211.061 57.93 211.581 57.53V55.07C210.481 55.13 209.571 55.23 208.851 55.37C208.131 55.51 207.561 55.69 207.141 55.91C206.721 56.11 206.421 56.35 206.241 56.63C206.081 56.91 206.001 57.21 206.001 57.53C206.001 58.01 206.181 58.37 206.541 58.61C206.921 58.83 207.431 58.94 208.071 58.94ZM221.41 62V47.12H225.01L225.37 50.36H225.46C226.2 49.14 227.09 48.24 228.13 47.66C229.17 47.06 230.29 46.76 231.49 46.76C232.15 46.76 232.68 46.81 233.08 46.91C233.5 47.01 233.93 47.16 234.37 47.36L233.47 51.05C233.01 50.91 232.59 50.81 232.21 50.75C231.85 50.67 231.39 50.63 230.83 50.63C229.91 50.63 229 50.9 228.1 51.44C227.22 51.98 226.46 52.92 225.82 54.26V62H221.41ZM245.818 62.36C244.658 62.36 243.568 62.19 242.548 61.85C241.548 61.49 240.678 60.98 239.938 60.32C239.198 59.66 238.618 58.85 238.198 57.89C237.778 56.91 237.568 55.8 237.568 54.56C237.568 53.34 237.778 52.25 238.198 51.29C238.638 50.31 239.218 49.49 239.938 48.83C240.658 48.15 241.478 47.64 242.398 47.3C243.338 46.94 244.308 46.76 245.308 46.76C246.448 46.76 247.458 46.94 248.338 47.3C249.218 47.66 249.948 48.16 250.528 48.8C251.128 49.44 251.578 50.2 251.878 51.08C252.178 51.94 252.328 52.88 252.328 53.9C252.328 54.3 252.298 54.69 252.238 55.07C252.198 55.43 252.158 55.7 252.118 55.88H241.978C242.198 56.96 242.688 57.75 243.448 58.25C244.208 58.75 245.198 59 246.418 59C247.098 59 247.738 58.91 248.338 58.73C248.958 58.55 249.598 58.29 250.258 57.95L251.728 60.62C250.868 61.16 249.918 61.59 248.878 61.91C247.838 62.21 246.818 62.36 245.818 62.36ZM245.458 50.12C244.578 50.12 243.838 50.35 243.238 50.81C242.658 51.27 242.258 51.97 242.038 52.91H248.398C248.178 51.05 247.198 50.12 245.458 50.12ZM273.635 62V59.48C274.995 58.34 276.235 57.28 277.355 56.3C278.475 55.3 279.435 54.37 280.235 53.51C281.035 52.65 281.655 51.84 282.095 51.08C282.535 50.32 282.755 49.6 282.755 48.92C282.755 47.98 282.485 47.27 281.945 46.79C281.405 46.29 280.635 46.04 279.635 46.04C278.875 46.04 278.175 46.24 277.535 46.64C276.915 47.02 276.335 47.47 275.795 47.99L273.425 45.62C273.925 45.12 274.415 44.68 274.895 44.3C275.395 43.92 275.915 43.61 276.455 43.37C277.015 43.11 277.595 42.92 278.195 42.8C278.815 42.66 279.495 42.59 280.235 42.59C281.235 42.59 282.145 42.74 282.965 43.04C283.785 43.32 284.485 43.73 285.065 44.27C285.665 44.79 286.125 45.42 286.445 46.16C286.785 46.9 286.955 47.73 286.955 48.65C286.955 49.45 286.765 50.27 286.385 51.11C286.005 51.93 285.485 52.76 284.825 53.6C284.185 54.42 283.445 55.25 282.605 56.09C281.765 56.91 280.885 57.72 279.965 58.52C280.505 58.46 281.085 58.41 281.705 58.37C282.345 58.31 282.915 58.28 283.415 58.28H287.945V62H273.635ZM298.253 62.36C296.613 62.36 295.203 62.12 294.023 61.64C292.843 61.14 291.883 60.48 291.143 59.66L293.183 56.87C293.823 57.43 294.533 57.89 295.313 58.25C296.113 58.61 296.953 58.79 297.833 58.79C298.873 58.79 299.723 58.6 300.383 58.22C301.063 57.82 301.403 57.26 301.403 56.54C301.403 56.12 301.313 55.74 301.133 55.4C300.953 55.06 300.643 54.78 300.203 54.56C299.763 54.32 299.173 54.14 298.433 54.02C297.693 53.88 296.763 53.81 295.643 53.81V50.69C297.523 50.69 298.843 50.46 299.603 50C300.383 49.52 300.773 48.9 300.773 48.14C300.773 47.48 300.523 46.97 300.023 46.61C299.523 46.23 298.833 46.04 297.953 46.04C297.193 46.04 296.493 46.19 295.853 46.49C295.213 46.79 294.563 47.2 293.903 47.72L291.683 45.02C292.623 44.26 293.623 43.67 294.683 43.25C295.763 42.81 296.923 42.59 298.163 42.59C299.203 42.59 300.153 42.71 301.013 42.95C301.873 43.17 302.613 43.51 303.233 43.97C303.853 44.41 304.333 44.95 304.673 45.59C305.013 46.23 305.183 46.97 305.183 47.81C305.183 48.81 304.863 49.66 304.223 50.36C303.583 51.04 302.693 51.6 301.553 52.04V52.16C302.753 52.48 303.763 53.03 304.583 53.81C305.403 54.57 305.813 55.57 305.813 56.81C305.813 57.69 305.603 58.48 305.183 59.18C304.783 59.86 304.233 60.44 303.533 60.92C302.853 61.38 302.053 61.74 301.133 62C300.213 62.24 299.253 62.36 298.253 62.36ZM313.661 62C313.741 60.42 313.891 58.97 314.111 57.65C314.351 56.31 314.681 55.04 315.101 53.84C315.541 52.62 316.101 51.44 316.781 50.3C317.461 49.14 318.301 47.93 319.301 46.67H309.731V42.95H324.041V45.65C322.841 46.99 321.871 48.25 321.131 49.43C320.391 50.59 319.811 51.8 319.391 53.06C318.971 54.3 318.671 55.64 318.491 57.08C318.311 58.5 318.181 60.14 318.101 62H313.661Z" fill="white"/>
</svg>