<?xml version="1.0" standalone="no"?>
<!DOCTYPE svg PUBLIC "-//W3C//DTD SVG 20010904//EN"
 "http://www.w3.org/TR/2001/REC-SVG-20010904/DTD/svg10.dtd">
<svg version="1.0" xmlns="http://www.w3.org/2000/svg"
 width="225.000000pt" height="225.000000pt" viewBox="0 0 225.000000 225.000000"
 preserveAspectRatio="xMidYMid meet">

<g transform="translate(0.000000,225.000000) scale(0.100000,-0.100000)"
fill="#2F80ED" stroke="none">
<path d="M952 2240 c-282 -40 -561 -203 -733 -429 -70 -93 -154 -267 -185
-386 -23 -87 -27 -121 -27 -255 0 -135 3 -168 26 -257 45 -178 138 -350 257
-476 l58 -62 41 39 41 40 27 -22 c76 -60 185 -125 254 -152 429 -165 918 29
1114 441 55 117 76 214 76 354 0 89 -5 141 -21 200 -36 141 -123 298 -214 384
l-36 35 30 31 30 31 -49 38 c-73 55 -178 103 -278 127 -72 17 -108 20 -198 16
-173 -8 -309 -57 -430 -154 -178 -145 -292 -398 -269 -599 7 -52 8 -55 33 -52
24 3 27 8 33 63 23 207 177 388 388 456 90 29 240 29 330 0 184 -59 340 -219
379 -391 15 -63 13 -206 -3 -265 -33 -125 -121 -246 -229 -316 -199 -129 -435
-126 -632 6 l-64 42 -37 -38 -38 -39 -44 42 c-88 86 -165 220 -208 365 -23 76
-27 106 -27 223 0 117 4 147 27 224 103 344 381 585 736 637 144 21 339 -4
464 -60 l44 -19 21 22 21 23 -87 41 c-133 63 -261 93 -423 97 -74 2 -163 0
-198 -5z"/>
<path d="M2036 1701 l-47 -48 46 -94 c68 -142 88 -228 88 -384 0 -141 -19
-236 -68 -343 -14 -30 -25 -56 -25 -58 0 -2 11 -4 24 -4 29 0 72 76 115 206
77 232 64 473 -38 698 -16 35 -33 66 -38 69 -5 3 -31 -15 -57 -42z"/>
</g>
</svg>
