<svg width="30" height="30" viewBox="0 0 30 30" fill="none" xmlns="http://www.w3.org/2000/svg">
<path d="M23.7788 21.2212C23.1933 20.6605 22.6235 20.0836 22.07 19.4912C21.605 19.0187 21.325 18.675 21.325 18.675L17.825 17.0037C19.2262 15.4145 19.9996 13.3687 20 11.25C20 6.42625 16.075 2.5 11.25 2.5C6.425 2.5 2.5 6.42625 2.5 11.25C2.5 16.0737 6.425 20 11.25 20C13.4537 20 15.4625 19.175 17.0037 17.8262L18.675 21.3262C18.675 21.3262 19.0188 21.6062 19.4913 22.0712C19.975 22.525 20.6112 23.1387 21.2212 23.78L22.9187 25.52L23.6737 26.3275L26.325 23.6762L25.5175 22.9212C25.0437 22.4562 24.4113 21.8387 23.7788 21.2212ZM11.25 17.5C7.80375 17.5 5 14.6962 5 11.25C5 7.80375 7.80375 5 11.25 5C14.6962 5 17.5 7.80375 17.5 11.25C17.5 14.6962 14.6962 17.5 11.25 17.5Z" fill="#2F80ED"/>
</svg>
