<svg width="21" height="20" viewBox="0 0 21 20" fill="none" xmlns="http://www.w3.org/2000/svg">
<path d="M20.0092 6.95313L13.8105 6.05225L11.0395 0.434579C10.9638 0.280771 10.8393 0.156259 10.6855 0.0805754C10.2998 -0.109854 9.83102 0.0488372 9.63814 0.434579L6.86715 6.05225L0.668419 6.95313C0.49752 6.97755 0.34127 7.05811 0.221642 7.18018C0.0770168 7.32883 -0.002678 7.52882 6.87156e-05 7.73619C0.00281543 7.94357 0.0877789 8.14138 0.23629 8.28614L4.72115 12.6587L3.66158 18.833C3.63674 18.9766 3.65263 19.1244 3.70746 19.2594C3.76229 19.3945 3.85387 19.5115 3.97181 19.5971C4.08975 19.6828 4.22932 19.7337 4.37472 19.744C4.52011 19.7544 4.6655 19.7238 4.79439 19.6558L10.3388 16.7407L15.8833 19.6558C16.0346 19.7363 16.2104 19.7632 16.3789 19.7339C16.8037 19.6607 17.0893 19.2578 17.0161 18.833L15.9565 12.6587L20.4414 8.28614C20.5634 8.16651 20.644 8.01026 20.6684 7.83936C20.7343 7.41212 20.4365 7.01661 20.0092 6.95313V6.95313ZM14.0693 12.0435L14.9506 17.1777L10.3388 14.7559L5.72701 17.1802L6.60836 12.0459L2.87789 8.40821L8.03414 7.6587L10.3388 2.98829L12.6435 7.6587L17.7998 8.40821L14.0693 12.0435Z" fill="white"/>
</svg>
