<svg width="25" height="25" viewBox="0 0 25 25" fill="none" xmlns="http://www.w3.org/2000/svg">
<path d="M22.1704 8.62061L15.9716 7.71973L13.2006 2.10205C13.125 1.94824 13.0004 1.82373 12.8466 1.74805C12.4609 1.55762 11.9921 1.71631 11.7993 2.10205L9.02828 7.71973L2.82955 8.62061C2.65865 8.64502 2.5024 8.72559 2.38277 8.84766C2.23815 8.99631 2.15845 9.19629 2.1612 9.40367C2.16395 9.61104 2.24891 9.80885 2.39742 9.95361L6.88229 14.3262L5.82272 20.5005C5.79787 20.6441 5.81376 20.7918 5.86859 20.9269C5.92343 21.0619 6.015 21.1789 6.13294 21.2646C6.25088 21.3502 6.39046 21.4011 6.53585 21.4115C6.68124 21.4219 6.82663 21.3913 6.95553 21.3232L12.5 18.4082L18.0444 21.3232C18.1958 21.4038 18.3715 21.4307 18.54 21.4014C18.9648 21.3281 19.2505 20.9253 19.1772 20.5005L18.1176 14.3262L22.6025 9.95361C22.7246 9.83399 22.8051 9.67773 22.8295 9.50684C22.8955 9.07959 22.5976 8.68408 22.1704 8.62061ZM16.2304 13.7109L17.1118 18.8452L12.5 16.4233L7.88814 18.8477L8.76949 13.7134L5.03902 10.0757L10.1953 9.32617L12.5 4.65576L14.8046 9.32617L19.9609 10.0757L16.2304 13.7109Z" fill="#333333"/>
</svg>
