<svg width="30" height="30" viewBox="0 0 30 30" fill="none" xmlns="http://www.w3.org/2000/svg">
<path d="M15 0C6.71371 0 0 6.71371 0 15C0 23.2863 6.71371 30 15 30C23.2863 30 30 23.2863 30 15C30 6.71371 23.2863 0 15 0ZM22.3669 10.2762L19.9052 21.877C19.7238 22.6996 19.2339 22.8992 18.5504 22.5121L14.8004 19.748L12.9919 21.4899C12.7923 21.6895 12.623 21.8589 12.2359 21.8589L12.502 18.0423L19.4516 11.7641C19.754 11.498 19.3851 11.3468 18.9859 11.6129L10.3972 17.0202L6.69556 15.8649C5.89113 15.6109 5.87298 15.0605 6.86492 14.6734L21.3266 9.09677C21.998 8.85484 22.5847 9.26008 22.3669 10.2762Z" fill="#333333"/>
</svg>
