<svg width="25" height="25" viewBox="0 0 28 28" fill="none" xmlns="http://www.w3.org/2000/svg">
<path d="M14 0.875C6.75195 0.875 0.875 6.75195 0.875 14C0.875 21.248 6.75195 27.125 14 27.125C21.248 27.125 27.125 21.248 27.125 14C27.125 6.75195 21.248 0.875 14 0.875ZM20.3076 10.7686C20.3164 10.9062 20.3164 11.0498 20.3164 11.1904C20.3164 15.4912 17.041 20.4453 11.0557 20.4453C9.20996 20.4453 7.49902 19.9092 6.05762 18.9863C6.32129 19.0156 6.57324 19.0273 6.84277 19.0273C8.36621 19.0273 9.7666 18.5117 10.8828 17.6387C9.45312 17.6094 8.25195 16.6719 7.8418 15.3828C8.34277 15.4561 8.79395 15.4561 9.30957 15.3242C8.57342 15.1747 7.91174 14.7749 7.43696 14.1927C6.96218 13.6106 6.70357 12.8821 6.70508 12.1309V12.0898C7.13574 12.333 7.64258 12.4824 8.17285 12.5029C7.72708 12.2058 7.3615 11.8034 7.10853 11.3311C6.85556 10.8589 6.72302 10.3316 6.72266 9.7959C6.72266 9.18945 6.88086 8.63574 7.16504 8.15527C7.98214 9.16114 9.00175 9.98382 10.1576 10.5698C11.3135 11.1558 12.5797 11.4921 13.874 11.5566C13.4141 9.34473 15.0664 7.55469 17.0527 7.55469C17.9902 7.55469 18.834 7.94727 19.4287 8.58008C20.1641 8.44238 20.8672 8.16699 21.4941 7.79785C21.251 8.55078 20.7412 9.18652 20.0645 9.58789C20.7207 9.51758 21.3535 9.33594 21.9395 9.08105C21.4971 9.73145 20.9434 10.3086 20.3076 10.7686Z" fill="#333333"/>
</svg>
