<svg width="580" height="313" viewBox="0 0 580 313" fill="none" xmlns="http://www.w3.org/2000/svg">
<g clip-path="url(#clip0)">
<path opacity="0.1" d="M580 200.886C580.007 209.388 578.838 217.851 576.527 226.033C574.293 233.921 571.007 241.472 566.757 248.482C566.757 273.883 549.611 295.836 524.723 306.28C514.323 310.6 503.166 312.806 491.905 312.769H110.104C89.6972 312.769 70.7864 307.263 55.2774 297.884C50.8389 295.212 46.6284 292.178 42.6888 288.814C25.451 273.999 14.7636 253.527 14.7636 230.915C5.08926 216.018 -0.0405376 198.627 -5.79655e-06 180.865C-5.79655e-06 143.672 21.9984 111.691 53.5131 97.5709C57.6979 95.6968 62.0221 94.1509 66.4465 92.9471C68.0114 92.5212 69.5932 92.1393 71.1919 91.8013C75.4538 90.8937 79.7766 90.3006 84.1253 90.0268C85.697 89.9288 87.2772 89.873 88.8657 89.8595H89.7378C91.492 89.8595 93.2309 89.9203 94.9598 90.0217L95.5276 89.0585C96.2239 87.8958 96.9371 86.7449 97.6671 85.6058C98.9853 83.5305 100.368 81.4857 101.814 79.4712C103.329 77.3452 104.909 75.253 106.555 73.1946L106.976 72.6876C107.908 71.5249 108.862 70.3758 109.835 69.2401C112.877 65.6945 116.088 62.2554 119.468 58.9228C156.027 23.0885 213.302 0.0203247 277.69 0.0203247C327.791 0.0203247 373.588 13.988 408.667 37.0663C421.956 29.5459 436.968 25.5998 452.238 25.6133C501.791 25.6133 541.976 66.3604 541.976 116.624C541.968 119.804 541.799 122.982 541.469 126.145C553.413 134.601 563.15 145.805 569.856 158.813C576.562 171.821 580.041 186.251 580 200.886Z" fill="#2F80ED"/>
<path opacity="0.2" d="M119.478 58.9025V69.2198H109.845C112.864 65.6776 116.074 62.2385 119.478 58.9025Z" fill="#2F80ED"/>
<path opacity="0.2" d="M137.157 56.2864H124.223V69.2198H137.157V56.2864Z" fill="#2F80ED"/>
<path opacity="0.2" d="M154.831 56.2864H141.897V69.2198H154.831V56.2864Z" fill="#2F80ED"/>
<path opacity="0.2" d="M172.509 56.2864H159.576V69.2198H172.509V56.2864Z" fill="#2F80ED"/>
<path opacity="0.2" d="M190.183 56.2864H177.25V69.2198H190.183V56.2864Z" fill="#2F80ED"/>
<path opacity="0.2" d="M207.862 56.2864H194.929V69.2198H207.862V56.2864Z" fill="#2F80ED"/>
<path d="M225.541 56.2864H212.607V69.2198H225.541V56.2864Z" fill="#2F80ED"/>
<path opacity="0.2" d="M243.215 56.2864H230.281V69.2198H243.215V56.2864Z" fill="#2F80ED"/>
<path opacity="0.2" d="M260.894 56.2864H247.96V69.2198H260.894V56.2864Z" fill="#2F80ED"/>
<path opacity="0.2" d="M278.567 56.2864H265.634V69.2198H278.567V56.2864Z" fill="#2F80ED"/>
<path d="M296.246 56.2864H283.313V69.2198H296.246V56.2864Z" fill="#2F80ED"/>
<path opacity="0.2" d="M313.925 56.2864H300.992V69.2198H313.925V56.2864Z" fill="#2F80ED"/>
<path opacity="0.2" d="M331.599 56.2864H318.665V69.2198H331.599V56.2864Z" fill="#2F80ED"/>
<path opacity="0.2" d="M349.278 56.2864H336.344V69.2198H349.278V56.2864Z" fill="#2F80ED"/>
<path opacity="0.2" d="M366.956 56.2864H354.023V69.2198H366.956V56.2864Z" fill="#2F80ED"/>
<path opacity="0.2" d="M384.63 56.2864H371.697V69.2198H384.63V56.2864Z" fill="#2F80ED"/>
<path opacity="0.2" d="M402.309 56.2864H389.376V69.2198H402.309V56.2864Z" fill="#2F80ED"/>
<path d="M419.983 56.2864H407.049V69.2198H419.983V56.2864Z" fill="#2F80ED"/>
<path d="M437.662 56.2864H424.728V69.2198H437.662V56.2864Z" fill="#2F80ED"/>
<path opacity="0.2" d="M455.341 56.2864H442.407V69.2198H455.341V56.2864Z" fill="#2F80ED"/>
<path opacity="0.2" d="M473.014 56.2864H460.081V69.2198H473.014V56.2864Z" fill="#2F80ED"/>
<path d="M490.693 56.2864H477.76V69.2198H490.693V56.2864Z" fill="#2F80ED"/>
<path d="M508.367 56.2864H495.434V69.2198H508.367V56.2864Z" fill="#2F80ED"/>
<path d="M101.804 79.4661V85.6007H97.657C98.9752 83.5119 100.358 81.467 101.804 79.4661Z" fill="#2F80ED"/>
<path opacity="0.2" d="M119.478 72.6673H106.545V85.6007H119.478V72.6673Z" fill="#2F80ED"/>
<path d="M137.157 72.6673H124.223V85.6007H137.157V72.6673Z" fill="#2F80ED"/>
<path opacity="0.2" d="M154.831 72.6673H141.897V85.6007H154.831V72.6673Z" fill="#2F80ED"/>
<path opacity="0.7" d="M172.509 72.6673H159.576V85.6007H172.509V72.6673Z" fill="#2F80ED"/>
<path opacity="0.2" d="M190.183 72.6673H177.25V85.6007H190.183V72.6673Z" fill="#2F80ED"/>
<path opacity="0.4" d="M207.862 72.6673H194.929V85.6007H207.862V72.6673Z" fill="#2F80ED"/>
<path d="M225.541 72.6673H212.607V85.6007H225.541V72.6673Z" fill="#2F80ED"/>
<path opacity="0.4" d="M243.215 72.6673H230.281V85.6007H243.215V72.6673Z" fill="#2F80ED"/>
<path opacity="0.2" d="M260.894 72.6673H247.96V85.6007H260.894V72.6673Z" fill="#2F80ED"/>
<path opacity="0.4" d="M278.567 72.6673H265.634V85.6007H278.567V72.6673Z" fill="#2F80ED"/>
<path d="M296.246 72.6673H283.313V85.6007H296.246V72.6673Z" fill="#2F80ED"/>
<path opacity="0.4" d="M313.925 72.6673H300.992V85.6007H313.925V72.6673Z" fill="#2F80ED"/>
<path opacity="0.4" d="M331.599 72.6673H318.665V85.6007H331.599V72.6673Z" fill="#2F80ED"/>
<path opacity="0.2" d="M349.278 72.6673H336.344V85.6007H349.278V72.6673Z" fill="#2F80ED"/>
<path opacity="0.4" d="M366.956 72.6673H354.023V85.6007H366.956V72.6673Z" fill="#2F80ED"/>
<path opacity="0.4" d="M384.63 72.6673H371.697V85.6007H384.63V72.6673Z" fill="#2F80ED"/>
<path opacity="0.2" d="M402.309 72.6673H389.376V85.6007H402.309V72.6673Z" fill="#2F80ED"/>
<path opacity="0.2" d="M419.983 72.6673H407.049V85.6007H419.983V72.6673Z" fill="#2F80ED"/>
<path opacity="0.4" d="M437.662 72.6673H424.728V85.6007H437.662V72.6673Z" fill="#2F80ED"/>
<path opacity="0.2" d="M455.341 72.6673H442.407V85.6007H455.341V72.6673Z" fill="#2F80ED"/>
<path d="M473.014 72.6673H460.081V85.6007H473.014V72.6673Z" fill="#2F80ED"/>
<path d="M490.693 72.6673H477.76V85.6007H490.693V72.6673Z" fill="#2F80ED"/>
<path d="M508.367 72.6673H495.434V85.6007H508.367V72.6673Z" fill="#2F80ED"/>
<path opacity="0.2" d="M66.4466 92.947V101.987H53.5132V97.5708C57.698 95.6968 62.0221 94.1508 66.4466 92.947Z" fill="#2F80ED"/>
<path opacity="0.2" d="M84.1253 90.0267V101.987H71.1919V91.8012L84.1253 90.0267Z" fill="#2F80ED"/>
<path d="M101.799 89.0533H88.8657V101.987H101.799V89.0533Z" fill="#2F80ED"/>
<path opacity="0.7" d="M119.478 89.0533H106.545V101.987H119.478V89.0533Z" fill="#2F80ED"/>
<path d="M137.157 89.0533H124.223V101.987H137.157V89.0533Z" fill="#2F80ED"/>
<path opacity="0.7" d="M154.831 89.0533H141.897V101.987H154.831V89.0533Z" fill="#2F80ED"/>
<path opacity="0.7" d="M172.509 89.0533H159.576V101.987H172.509V89.0533Z" fill="#2F80ED"/>
<path opacity="0.2" d="M190.183 89.0533H177.25V101.987H190.183V89.0533Z" fill="#2F80ED"/>
<path opacity="0.4" d="M207.862 89.0533H194.929V101.987H207.862V89.0533Z" fill="#2F80ED"/>
<path opacity="0.4" d="M225.541 89.0533H212.607V101.987H225.541V89.0533Z" fill="#2F80ED"/>
<path d="M243.215 89.0533H230.281V101.987H243.215V89.0533Z" fill="#2F80ED"/>
<path opacity="0.2" d="M260.894 89.0533H247.96V101.987H260.894V89.0533Z" fill="#2F80ED"/>
<path opacity="0.4" d="M278.567 89.0533H265.634V101.987H278.567V89.0533Z" fill="#2F80ED"/>
<path d="M296.246 89.0533H283.313V101.987H296.246V89.0533Z" fill="#2F80ED"/>
<path opacity="0.2" d="M313.925 89.0533H300.992V101.987H313.925V89.0533Z" fill="#2F80ED"/>
<path opacity="0.4" d="M331.599 89.0533H318.665V101.987H331.599V89.0533Z" fill="#2F80ED"/>
<path opacity="0.2" d="M349.278 89.0533H336.344V101.987H349.278V89.0533Z" fill="#2F80ED"/>
<path d="M366.956 89.0533H354.023V101.987H366.956V89.0533Z" fill="#2F80ED"/>
<path opacity="0.2" d="M384.63 89.0533H371.697V101.987H384.63V89.0533Z" fill="#2F80ED"/>
<path opacity="0.7" d="M402.309 89.0533H389.376V101.987H402.309V89.0533Z" fill="#2F80ED"/>
<path opacity="0.7" d="M419.983 89.0533H407.049V101.987H419.983V89.0533Z" fill="#2F80ED"/>
<path opacity="0.4" d="M437.662 89.0533H424.728V101.987H437.662V89.0533Z" fill="#2F80ED"/>
<path opacity="0.2" d="M455.341 89.0533H442.407V101.987H455.341V89.0533Z" fill="#2F80ED"/>
<path d="M473.014 89.0533H460.081V101.987H473.014V89.0533Z" fill="#2F80ED"/>
<path d="M490.693 89.0533H477.76V101.987H490.693V89.0533Z" fill="#2F80ED"/>
<path d="M508.367 89.0533H495.434V101.987H508.367V89.0533Z" fill="#2F80ED"/>
<path opacity="0.2" d="M66.4466 105.434H53.5132V118.368H66.4466V105.434Z" fill="#2F80ED"/>
<path opacity="0.2" d="M84.1253 105.434H71.1919V118.368H84.1253V105.434Z" fill="#2F80ED"/>
<path opacity="0.2" d="M101.799 105.434H88.8657V118.368H101.799V105.434Z" fill="#2F80ED"/>
<path opacity="0.2" d="M119.478 105.434H106.545V118.368H119.478V105.434Z" fill="#2F80ED"/>
<path d="M137.157 105.434H124.223V118.368H137.157V105.434Z" fill="#2F80ED"/>
<path opacity="0.7" d="M154.831 105.434H141.897V118.368H154.831V105.434Z" fill="#2F80ED"/>
<path opacity="0.7" d="M172.509 105.434H159.576V118.368H172.509V105.434Z" fill="#2F80ED"/>
<path opacity="0.2" d="M190.183 105.434H177.25V118.368H190.183V105.434Z" fill="#2F80ED"/>
<path opacity="0.2" d="M207.862 105.434H194.929V118.368H207.862V105.434Z" fill="#2F80ED"/>
<path opacity="0.4" d="M225.541 105.434H212.607V118.368H225.541V105.434Z" fill="#2F80ED"/>
<path opacity="0.4" d="M243.215 105.434H230.281V118.368H243.215V105.434Z" fill="#2F80ED"/>
<path d="M260.894 105.434H247.96V118.368H260.894V105.434Z" fill="#2F80ED"/>
<path opacity="0.2" d="M278.567 105.434H265.634V118.368H278.567V105.434Z" fill="#2F80ED"/>
<path opacity="0.4" d="M296.246 105.434H283.313V118.368H296.246V105.434Z" fill="#2F80ED"/>
<path opacity="0.4" d="M313.925 105.434H300.992V118.368H313.925V105.434Z" fill="#2F80ED"/>
<path opacity="0.4" d="M331.599 105.434H318.665V118.368H331.599V105.434Z" fill="#2F80ED"/>
<path opacity="0.4" d="M349.278 105.434H336.344V118.368H349.278V105.434Z" fill="#2F80ED"/>
<path opacity="0.2" d="M366.956 105.434H354.023V118.368H366.956V105.434Z" fill="#2F80ED"/>
<path opacity="0.2" d="M384.63 105.434H371.697V118.368H384.63V105.434Z" fill="#2F80ED"/>
<path opacity="0.2" d="M402.309 105.434H389.376V118.368H402.309V105.434Z" fill="#2F80ED"/>
<path opacity="0.2" d="M419.983 105.434H407.049V118.368H419.983V105.434Z" fill="#2F80ED"/>
<path opacity="0.7" d="M437.662 105.434H424.728V118.368H437.662V105.434Z" fill="#2F80ED"/>
<path opacity="0.7" d="M455.341 105.434H442.407V118.368H455.341V105.434Z" fill="#2F80ED"/>
<path opacity="0.4" d="M473.014 105.434H460.081V118.368H473.014V105.434Z" fill="#2F80ED"/>
<path opacity="0.2" d="M490.693 105.434H477.76V118.368H490.693V105.434Z" fill="#2F80ED"/>
<path d="M508.367 105.434H495.434V118.368H508.367V105.434Z" fill="#2F80ED"/>
<path opacity="0.2" d="M66.4466 121.82H53.5132V134.754H66.4466V121.82Z" fill="#2F80ED"/>
<path opacity="0.2" d="M84.1253 121.82H71.1919V134.754H84.1253V121.82Z" fill="#2F80ED"/>
<path opacity="0.4" d="M101.799 121.82H88.8657V134.754H101.799V121.82Z" fill="#2F80ED"/>
<path opacity="0.2" d="M119.478 121.82H106.545V134.754H119.478V121.82Z" fill="#2F80ED"/>
<path opacity="0.2" d="M137.157 121.82H124.223V134.754H137.157V121.82Z" fill="#2F80ED"/>
<path opacity="0.7" d="M154.831 121.82H141.897V134.754H154.831V121.82Z" fill="#2F80ED"/>
<path opacity="0.7" d="M172.509 121.82H159.576V134.754H172.509V121.82Z" fill="#2F80ED"/>
<path opacity="0.2" d="M190.183 121.82H177.25V134.754H190.183V121.82Z" fill="#2F80ED"/>
<path opacity="0.2" d="M207.862 121.82H194.929V134.754H207.862V121.82Z" fill="#2F80ED"/>
<path opacity="0.4" d="M225.541 121.82H212.607V134.754H225.541V121.82Z" fill="#2F80ED"/>
<path d="M243.215 121.82H230.281V134.754H243.215V121.82Z" fill="#2F80ED"/>
<path opacity="0.2" d="M260.894 121.82H247.96V134.754H260.894V121.82Z" fill="#2F80ED"/>
<path d="M278.567 121.82H265.634V134.754H278.567V121.82Z" fill="#2F80ED"/>
<path d="M296.246 121.82H283.313V134.754H296.246V121.82Z" fill="#2F80ED"/>
<path d="M313.925 121.82H300.992V134.754H313.925V121.82Z" fill="#2F80ED"/>
<path opacity="0.2" d="M331.599 121.82H318.665V134.754H331.599V121.82Z" fill="#2F80ED"/>
<path d="M349.278 121.82H336.344V134.754H349.278V121.82Z" fill="#2F80ED"/>
<path opacity="0.2" d="M366.956 121.82H354.023V134.754H366.956V121.82Z" fill="#2F80ED"/>
<path opacity="0.2" d="M384.63 121.82H371.697V134.754H384.63V121.82Z" fill="#2F80ED"/>
<path opacity="0.2" d="M402.309 121.82H389.376V134.754H402.309V121.82Z" fill="#2F80ED"/>
<path opacity="0.2" d="M419.983 121.82H407.049V134.754H419.983V121.82Z" fill="#2F80ED"/>
<path opacity="0.2" d="M437.662 121.82H424.728V134.754H437.662V121.82Z" fill="#2F80ED"/>
<path opacity="0.7" d="M455.341 121.82H442.407V134.754H455.341V121.82Z" fill="#2F80ED"/>
<path opacity="0.2" d="M473.014 121.82H460.081V134.754H473.014V121.82Z" fill="#2F80ED"/>
<path opacity="0.2" d="M490.693 121.82H477.76V134.754H490.693V121.82Z" fill="#2F80ED"/>
<path d="M508.367 121.82H495.434V134.754H508.367V121.82Z" fill="#2F80ED"/>
<path opacity="0.2" d="M66.4466 138.201H53.5132V151.135H66.4466V138.201Z" fill="#2F80ED"/>
<path opacity="0.2" d="M84.1253 138.201H71.1919V151.135H84.1253V138.201Z" fill="#2F80ED"/>
<path opacity="0.2" d="M101.799 138.201H88.8657V151.135H101.799V138.201Z" fill="#2F80ED"/>
<path opacity="0.4" d="M119.478 138.201H106.545V151.135H119.478V138.201Z" fill="#2F80ED"/>
<path opacity="0.2" d="M137.157 138.201H124.223V151.135H137.157V138.201Z" fill="#2F80ED"/>
<path opacity="0.2" d="M154.831 138.201H141.897V151.135H154.831V138.201Z" fill="#2F80ED"/>
<path opacity="0.7" d="M172.509 138.201H159.576V151.135H172.509V138.201Z" fill="#2F80ED"/>
<path opacity="0.2" d="M190.183 138.201H177.25V151.135H190.183V138.201Z" fill="#2F80ED"/>
<path opacity="0.2" d="M207.862 138.201H194.929V151.135H207.862V138.201Z" fill="#2F80ED"/>
<path opacity="0.2" d="M225.541 138.201H212.607V151.135H225.541V138.201Z" fill="#2F80ED"/>
<path d="M243.215 138.201H230.281V151.135H243.215V138.201Z" fill="#2F80ED"/>
<path opacity="0.2" d="M260.894 138.201H247.96V151.135H260.894V138.201Z" fill="#2F80ED"/>
<path d="M278.567 138.201H265.634V151.135H278.567V138.201Z" fill="#2F80ED"/>
<path d="M296.246 138.201H283.313V151.135H296.246V138.201Z" fill="#2F80ED"/>
<path opacity="0.2" d="M313.925 138.201H300.992V151.135H313.925V138.201Z" fill="#2F80ED"/>
<path opacity="0.2" d="M331.599 138.201H318.665V151.135H331.599V138.201Z" fill="#2F80ED"/>
<path opacity="0.2" d="M349.278 138.201H336.344V151.135H349.278V138.201Z" fill="#2F80ED"/>
<path opacity="0.2" d="M366.956 138.201H354.023V151.135H366.956V138.201Z" fill="#2F80ED"/>
<path opacity="0.2" d="M384.63 138.201H371.697V151.135H384.63V138.201Z" fill="#2F80ED"/>
<path opacity="0.2" d="M402.309 138.201H389.376V151.135H402.309V138.201Z" fill="#2F80ED"/>
<path opacity="0.2" d="M419.983 138.201H407.049V151.135H419.983V138.201Z" fill="#2F80ED"/>
<path opacity="0.2" d="M437.662 138.201H424.728V151.135H437.662V138.201Z" fill="#2F80ED"/>
<path opacity="0.2" d="M455.341 138.201H442.407V151.135H455.341V138.201Z" fill="#2F80ED"/>
<path opacity="0.2" d="M473.014 138.201H460.081V151.135H473.014V138.201Z" fill="#2F80ED"/>
<path opacity="0.4" d="M490.693 138.201H477.76V151.135H490.693V138.201Z" fill="#2F80ED"/>
<path d="M508.367 138.201H495.434V151.135H508.367V138.201Z" fill="#2F80ED"/>
<path opacity="0.7" d="M66.4466 154.587H53.5132V167.521H66.4466V154.587Z" fill="#2F80ED"/>
<path opacity="0.7" d="M84.1253 154.587H71.1919V167.521H84.1253V154.587Z" fill="#2F80ED"/>
<path opacity="0.7" d="M101.799 154.587H88.8657V167.521H101.799V154.587Z" fill="#2F80ED"/>
<path opacity="0.7" d="M119.478 154.587H106.545V167.521H119.478V154.587Z" fill="#2F80ED"/>
<path opacity="0.7" d="M137.157 154.587H124.223V167.521H137.157V154.587Z" fill="#2F80ED"/>
<path opacity="0.2" d="M154.831 154.587H141.897V167.521H154.831V154.587Z" fill="#2F80ED"/>
<path opacity="0.2" d="M172.509 154.587H159.576V167.521H172.509V154.587Z" fill="#2F80ED"/>
<path opacity="0.2" d="M190.183 154.587H177.25V167.521H190.183V154.587Z" fill="#2F80ED"/>
<path opacity="0.2" d="M207.862 154.587H194.929V167.521H207.862V154.587Z" fill="#2F80ED"/>
<path opacity="0.2" d="M225.541 154.587H212.607V167.521H225.541V154.587Z" fill="#2F80ED"/>
<path opacity="0.2" d="M243.215 154.587H230.281V167.521H243.215V154.587Z" fill="#2F80ED"/>
<path d="M260.894 154.587H247.96V167.521H260.894V154.587Z" fill="#2F80ED"/>
<path opacity="0.2" d="M278.567 154.587H265.634V167.521H278.567V154.587Z" fill="#2F80ED"/>
<path opacity="0.2" d="M296.246 154.587H283.313V167.521H296.246V154.587Z" fill="#2F80ED"/>
<path opacity="0.2" d="M313.925 154.587H300.992V167.521H313.925V154.587Z" fill="#2F80ED"/>
<path d="M331.599 154.587H318.665V167.521H331.599V154.587Z" fill="#2F80ED"/>
<path opacity="0.2" d="M349.278 154.587H336.344V167.521H349.278V154.587Z" fill="#2F80ED"/>
<path opacity="0.2" d="M366.956 154.587H354.023V167.521H366.956V154.587Z" fill="#2F80ED"/>
<path opacity="0.2" d="M384.63 154.587H371.697V167.521H384.63V154.587Z" fill="#2F80ED"/>
<path opacity="0.2" d="M402.309 154.587H389.376V167.521H402.309V154.587Z" fill="#2F80ED"/>
<path opacity="0.2" d="M419.983 154.587H407.049V167.521H419.983V154.587Z" fill="#2F80ED"/>
<path opacity="0.2" d="M437.662 154.587H424.728V167.521H437.662V154.587Z" fill="#2F80ED"/>
<path opacity="0.2" d="M455.341 154.587H442.407V167.521H455.341V154.587Z" fill="#2F80ED"/>
<path opacity="0.2" d="M473.014 154.587H460.081V167.521H473.014V154.587Z" fill="#2F80ED"/>
<path opacity="0.2" d="M490.693 154.587H477.76V167.521H490.693V154.587Z" fill="#2F80ED"/>
<path d="M508.367 154.587H495.434V167.521H508.367V154.587Z" fill="#2F80ED"/>
<path d="M372.397 202.169C382.16 202.169 390.075 194.253 390.075 184.49C390.075 174.726 382.16 166.811 372.397 166.811C362.633 166.811 354.718 174.726 354.718 184.49C354.718 194.253 362.633 202.169 372.397 202.169Z" fill="#767D9F"/>
<path d="M371.479 161.999C373.243 169.699 374.74 177.456 375.971 185.27C376.341 187.592 376.67 190.041 375.829 192.237C375.124 194.067 373.689 195.497 372.564 197.099C371.438 198.701 370.586 200.754 371.271 202.589C371.955 204.425 373.953 205.429 375.859 205.946C381.314 207.416 387.13 206.346 392.56 204.754C395.018 204.121 397.375 203.145 399.561 201.854C401.863 200.394 403.749 198.366 405.483 196.277C413.397 186.68 418.578 175.161 423.456 163.713C420.322 163.998 417.165 163.534 414.246 162.358C411.327 161.182 408.73 159.328 406.669 156.95C404.672 154.602 403.206 151.332 404.332 148.463C401.031 150.273 397.112 150.394 393.558 151.631C391.354 152.473 389.233 153.517 387.221 154.749C384.794 156.152 382.381 157.582 379.981 159.039C377.238 160.691 374.668 162.162 371.479 161.999Z" fill="#AE6E79"/>
<path d="M408.454 175.273C405.356 181.301 401.325 187.096 395.571 190.685C389.817 194.275 382.07 195.248 376.305 191.699C373.466 189.965 371.317 187.329 368.837 185.108C366.358 182.888 363.26 180.986 359.93 181.275C356.259 181.595 353.384 184.459 350.925 187.202C347.194 191.37 343.589 195.715 340.948 200.648C335.878 210.128 334.676 221.211 334.899 231.959C335.122 242.708 336.679 253.4 336.714 264.148C336.765 277.371 334.524 290.487 332.258 303.511C353.095 300.946 373.958 306.553 394.841 308.678C408.205 310.052 421.671 310.021 435.106 309.986C437.469 309.986 439.984 309.925 441.951 308.617C443.153 307.74 444.126 306.585 444.785 305.25C446.641 301.828 447.386 297.924 447.903 294.066C449.216 284.322 449.257 274.456 449.292 264.62C449.383 240.791 449.47 216.876 446.443 193.235C445.698 187.42 444.744 181.575 442.514 176.134C440.283 170.694 436.643 165.69 431.552 162.775C428.282 160.899 420.703 157.634 416.85 159.525C412.525 161.634 410.527 171.237 408.454 175.273Z" fill="#767D9F"/>
<path d="M409.995 242.561C409.209 227.858 406.01 212.166 412.819 199.116C414.492 195.912 408.489 191.912 410.345 188.809C412.609 185.026 414.327 180.942 415.445 176.677C415.831 175.212 416.14 173.66 415.775 172.19C415.101 169.508 412.449 167.911 410.198 166.278C407.714 164.474 406.436 158.973 405.635 155.997C404.834 153.021 412.008 156.605 414.893 155.545C418.898 154.08 423.988 155.003 427.983 156.488C430.214 157.31 432.637 157.381 435.015 157.442C439.634 157.563 444.268 157.68 448.851 157.112C450.909 156.854 452.973 156.463 455.041 156.58C460.319 156.879 464.907 160.489 468.031 164.758C471.154 169.026 473.141 174 475.701 178.624C477.836 182.477 480.381 186.117 482.201 190.127C483.813 193.676 484.832 197.489 485.841 201.281L488.442 211.01C488.897 212.402 489.113 213.861 489.081 215.325C488.949 216.881 488.259 218.331 487.56 219.716C484.914 224.846 481.742 229.686 478.094 234.16C472.624 240.867 465.982 246.916 462.732 254.947C461.465 258.075 460.76 261.401 460.116 264.716C457.52 277.978 455.675 291.375 454.59 304.845C448.666 302.103 442.456 300.027 436.075 298.654C432.894 297.974 429.678 297.466 426.442 297.133C423.608 296.839 419.952 297.397 417.255 296.626C412.743 295.344 412.246 287.713 411.562 283.718C410.467 277.356 410.249 270.881 410.208 264.453C410.157 257.142 410.385 249.846 409.995 242.561Z" fill="#4C4981"/>
<path d="M310.903 215.066C313.038 227.234 315.39 239.438 320.029 250.87C319.912 250.982 319.796 251.083 319.679 251.185C319.269 251.534 318.843 251.864 318.397 252.199C317.357 252.929 316.216 253.547 315.355 254.5C315.028 254.865 314.771 255.286 314.594 255.743C314.435 256.099 314.353 256.485 314.353 256.876C314.353 257.266 314.435 257.652 314.594 258.009C312.176 259.079 309.367 258.749 306.655 258.648C304.317 258.561 302.051 258.648 300.175 259.93C297.569 261.725 296.783 265.173 296.363 268.306C296.207 269.448 296.074 270.592 295.962 271.738C295.854 272.803 295.766 273.871 295.698 274.942C295.469 278.487 295.437 282.041 295.602 285.589C295.629 286.238 295.665 286.887 295.709 287.536C287.424 287.338 279.875 283.019 272.732 278.821C271.099 277.863 269.416 276.854 268.356 275.272C267.38 273.718 266.967 271.877 267.185 270.055C267.185 269.796 267.231 269.548 267.266 269.284C267.493 267.78 267.883 266.304 268.427 264.884C270.662 258.832 273.957 253.227 278.157 248.33C279.972 246.211 282.015 244.137 282.861 241.476C283.232 240.315 283.368 239.083 283.744 237.927C285.427 232.918 291.501 230.55 293.579 225.688C294.086 224.527 294.319 223.254 294.948 222.139C295.514 221.212 296.244 220.396 297.103 219.731C297.473 219.422 297.858 219.122 298.239 218.823C301.801 216.031 305.233 213.082 308.536 209.976C309.151 209.398 309.759 208.814 310.361 208.222C310.28 210.517 310.462 212.813 310.903 215.066Z" fill="#4C4981"/>
<path d="M361.993 179.08C361.263 179.851 360.472 180.576 359.696 181.296L359.489 181.483L358.667 182.244C357.176 183.53 355.886 185.032 354.839 186.7L354.753 186.842C352.168 191.471 353.126 197.17 353.846 202.427C354.739 208.979 355.14 215.588 355.047 222.2C354.915 231.326 353.841 240.391 353.82 249.506C353.82 251.575 353.866 253.638 353.957 255.707C354.104 259.068 354.358 262.425 354.662 265.781C354.991 269.462 355.387 273.137 355.757 276.813C356.051 279.657 356.33 282.496 356.563 285.336C356.68 286.806 356.791 288.271 356.883 289.741C356.989 291.465 357.075 293.194 357.126 294.918C357.161 296.013 357.182 297.103 357.182 298.198C357.182 298.822 357.182 299.44 357.182 300.059C357.182 301.245 357.15 302.428 357.085 303.608C357.018 305.125 356.915 306.646 356.776 308.171C356.619 309.828 356.34 311.638 355.174 312.805C355.103 312.876 355.027 312.941 354.951 313.007L353.308 312.805C341.985 311.449 330.552 311.245 319.188 312.196C319.436 310.482 319.664 308.774 319.887 307.055C319.989 306.244 320.09 305.428 320.186 304.612C320.298 303.679 320.404 302.746 320.506 301.813C320.622 300.799 320.729 299.785 320.83 298.771C321.094 296.158 321.325 293.544 321.525 290.928C321.819 287.112 322.042 283.289 322.194 279.46C322.268 277.631 322.326 275.801 322.366 273.969C322.424 271.698 322.451 269.425 322.448 267.15C322.448 264.939 322.429 262.725 322.392 260.508C322.392 259.778 322.361 259.048 322.301 258.323C322.257 257.67 322.167 257.021 322.032 256.381C321.655 254.905 321.146 253.466 320.511 252.082C320.399 251.818 320.293 251.575 320.186 251.296C320.126 251.159 320.07 251.017 320.014 250.88C322.934 248.28 325.013 244.796 327.011 241.369C330.25 235.848 333.566 230.084 334.108 223.706C334.651 217.328 331.482 210.164 325.388 208.217C323.73 207.71 321.976 207.568 320.268 207.269C318.655 206.985 315.294 206.341 313.428 205.185C312.414 206.226 311.4 207.249 310.386 208.252C310.448 206.721 310.822 205.218 311.486 203.837L312.206 203.872C312.148 203.71 312.12 203.538 312.125 203.365C312.125 202.823 312.5 202.209 313.301 201.53C315.689 199.502 319.446 199.051 320.952 196.308C321.581 195.167 321.687 193.808 322.194 192.612C323.649 189.2 327.827 187.942 330.341 185.215C332.856 182.487 333.485 178.624 335.518 175.582C337.037 173.36 339.143 171.605 341.602 170.512C341.805 170.416 342.012 170.319 342.22 170.233C346.428 168.433 351.427 168.023 355.787 168.033C357.481 168.033 361.871 168.083 364.021 168.94C364.37 169.065 364.689 169.26 364.959 169.513C367.251 172.008 363.686 177.275 361.993 179.08Z" fill="#4C4981"/>
<path d="M311.659 203.482C315.575 202.303 319.687 201.914 323.755 202.338C327.823 202.762 331.766 203.99 335.356 205.951C339.006 207.979 342.281 210.808 344.289 214.458C347.306 219.934 347.174 226.535 346.961 232.786C346.854 235.914 346.717 239.154 345.338 241.962C343.741 245.212 340.73 247.443 337.657 249.268C335.733 250.496 333.624 251.408 331.411 251.971C328.004 252.711 324.466 252.082 321.033 251.464C317.302 250.774 313.296 249.943 310.706 247.164C309.185 245.552 308.353 243.458 307.532 241.41C306.352 238.452 305.169 235.498 303.983 232.548C301.93 227.422 301.235 223.158 303.948 218.164C305.179 215.888 306.685 213.758 307.902 211.467C308.51 210.301 310.69 203.781 311.659 203.482Z" fill="#4C4981"/>
<path d="M524.738 291.126V306.285C514.338 310.605 503.182 312.811 491.92 312.774H355.189C355.118 312.845 355.042 312.911 354.966 312.977L353.323 312.774H110.104C89.6971 312.774 70.7863 307.268 55.2773 297.889V274.745L172.251 261.243H172.342L240.462 267.013L258.09 268.534L267.246 269.31L286.197 270.917L295.947 271.743L310.143 272.95L312.14 273.117L322.371 273.984L336.253 275.125L355.772 276.778L388.311 279.541L411.202 281.483L448.79 284.672L455.939 285.275L456.709 285.341L457.379 285.397L466.819 286.198L477.182 287.08L478.383 287.181L524.738 291.126Z" fill="#504F60"/>
<path d="M387.343 290.568L240.751 265.548L235.067 294.289L302.264 302.335L322.955 304.926L379.87 293.716L387.343 290.568Z" fill="#9C9CA1"/>
<path d="M311.461 303.486L384.904 289.681C385.271 289.61 385.65 289.622 386.012 289.715C386.374 289.809 386.712 289.981 386.999 290.22C387.287 290.459 387.519 290.758 387.677 291.097C387.835 291.436 387.917 291.806 387.915 292.18C387.917 292.774 387.71 293.349 387.331 293.805C386.952 294.262 386.425 294.572 385.842 294.68L314.118 308.11L311.461 303.486Z" fill="#9C9CA1"/>
<path d="M343.32 260.072C345.607 259.859 347.924 259.499 349.982 258.485C352.517 257.223 354.49 255.048 356.837 253.446C361.998 249.897 368.903 249.42 374.82 251.458C380.737 253.497 385.675 257.862 389.132 263.074C391.429 266.547 393.153 270.978 391.53 274.811C390.974 275.982 390.272 277.079 389.442 278.076L385.213 283.602C384.41 284.763 383.444 285.803 382.344 286.689C380.762 287.84 378.795 288.312 376.858 288.596C371.712 289.346 366.475 288.92 361.288 289.265C352.38 289.858 343.68 292.728 334.752 292.631C329.622 292.576 324.557 291.541 319.543 290.507L297.351 285.944C293.488 285.153 289.123 283.997 287.303 280.494C286.487 278.917 286.334 277.092 286.238 275.318C285.975 270.43 286.238 264.995 289.625 261.472C292.809 258.166 297.843 257.122 301.646 254.678C306.3 251.681 307.836 252.65 312.744 254.901C322.318 259.237 332.853 261.019 343.32 260.072Z" fill="#AE6E79"/>
<path opacity="0.05" d="M343.32 260.072C345.607 259.859 347.924 259.499 349.982 258.485C352.517 257.223 354.49 255.048 356.837 253.446C361.998 249.897 368.903 249.42 374.82 251.458C380.737 253.497 385.675 257.862 389.132 263.074C391.429 266.547 393.153 270.978 391.53 274.811C390.974 275.982 390.272 277.079 389.442 278.076L385.213 283.602C384.41 284.763 383.444 285.803 382.344 286.689C380.762 287.84 378.795 288.312 376.858 288.596C371.712 289.346 366.475 288.92 361.288 289.265C352.38 289.858 343.68 292.728 334.752 292.631C329.622 292.576 324.557 291.541 319.543 290.507L297.351 285.944C293.488 285.153 289.123 283.997 287.303 280.494C286.487 278.917 286.334 277.092 286.238 275.318C285.975 270.43 286.238 264.995 289.625 261.472C292.809 258.166 297.843 257.122 301.646 254.678C306.3 251.681 307.836 252.65 312.744 254.901C322.318 259.237 332.853 261.019 343.32 260.072Z" fill="black"/>
<path d="M432.435 253.121C426.209 255.53 419.948 257.948 413.428 259.383C402.497 261.791 391.059 261.411 380.214 264.164C374.485 265.624 368.792 267.976 362.906 267.5C360.274 267.287 357.734 266.486 355.174 265.877C340.791 262.328 324.44 263.479 312.759 272.605C308.764 275.723 305.494 279.612 302.528 283.759C301.893 284.655 301.464 285.68 301.272 286.76C301.079 287.841 301.128 288.951 301.414 290.011C301.7 291.071 302.217 292.054 302.928 292.891C303.638 293.728 304.525 294.397 305.524 294.852C310.067 296.941 314.933 298.239 319.913 298.69C326.57 299.278 333.257 298.335 339.878 297.392C349.704 295.998 359.534 294.598 369.334 293.032C372.853 292.469 376.371 291.886 379.91 291.44C405.377 288.22 431.304 292.134 456.836 289.447C459.417 289.174 462.043 288.819 464.391 287.719C470.332 284.93 473.273 277.579 472.046 271.12C470.819 264.66 466.084 259.291 460.385 255.996C455.609 253.223 450.458 252.102 445.14 250.926C440.202 249.775 437.19 251.296 432.435 253.121Z" fill="#AE6E79"/>
<path opacity="0.1" d="M487.053 214.509C489.862 218.189 490.46 223.128 490.156 227.736C489.852 232.345 488.756 236.903 488.594 241.531C488.371 247.879 489.902 254.206 489.644 260.534C489.461 264.96 488.412 269.299 487.17 273.548C485.704 278.562 483.585 283.952 478.956 286.36C472.811 289.559 459.924 287.759 453.46 290.264C454.048 286.598 459.685 281.29 460.274 277.624C460.679 275.089 461.09 272.483 460.654 269.943C460.096 266.704 458.195 263.829 455.939 261.436C452.349 257.628 447.665 254.764 442.519 253.831C437.373 252.898 424.774 253.664 420.657 256.914C420.15 253.557 429.58 250.323 432.896 249.598C434.549 249.228 436.445 249.435 437.768 248.386C440.303 246.399 438.463 242.439 438.584 239.26C438.681 236.725 440.161 234.403 440.46 231.868C440.967 227.812 438.321 223.68 439.36 219.7C439.745 218.23 440.602 216.937 441.195 215.538C443 211.254 442.209 206.366 441.246 201.814C440.648 198.954 440.065 195.73 441.657 193.291C443.132 191.015 447.32 199.121 450.002 198.746C458.859 197.504 466.875 190.939 474.028 196.313C477.674 199.05 478.15 201.89 479.605 205.799C481.02 209.52 484.685 211.426 487.053 214.509Z" fill="black"/>
<path d="M488.574 214.509C491.383 218.19 491.981 223.128 491.677 227.736C491.372 232.345 490.277 236.903 490.115 241.532C489.892 247.879 491.423 254.206 491.165 260.534C490.982 264.96 489.933 269.3 488.691 273.548C487.225 278.562 485.106 283.952 480.477 286.36C474.332 289.559 461.445 287.759 454.981 290.264C455.569 286.598 461.206 281.29 461.795 277.624C462.2 275.089 462.611 272.483 462.175 269.943C461.617 266.704 459.716 263.829 457.46 261.436C453.87 257.629 449.186 254.764 444.04 253.831C438.894 252.898 426.295 253.664 422.178 256.914C421.671 253.557 431.101 250.323 434.417 249.598C436.07 249.228 437.966 249.436 439.289 248.386C441.824 246.399 439.984 242.439 440.105 239.26C440.202 236.725 441.682 234.403 441.981 231.868C442.488 227.812 439.842 223.68 440.881 219.7C441.266 218.23 442.123 216.937 442.716 215.538C444.521 211.254 443.73 206.366 442.767 201.814C442.169 198.954 441.586 195.73 443.178 193.291C444.653 191.015 447.538 190.153 450.22 189.773C459.2 188.558 468.298 190.905 475.57 196.313C479.215 199.051 479.691 201.89 481.146 205.799C482.541 209.52 486.206 211.426 488.574 214.509Z" fill="#4C4981"/>
<path d="M153.112 190.487L180.677 292.363C181.015 293.611 181.726 294.726 182.714 295.561C183.702 296.395 184.921 296.908 186.209 297.032L310.28 308.951C311.291 309.049 312.311 308.903 313.254 308.525C314.197 308.147 315.036 307.549 315.7 306.781C316.364 306.012 316.835 305.095 317.072 304.108C317.309 303.12 317.306 302.09 317.063 301.103L286.877 178.218C286.518 176.758 285.652 175.472 284.435 174.589C283.217 173.706 281.725 173.284 280.225 173.397L158.755 182.482C157.822 182.554 156.917 182.832 156.104 183.294C155.291 183.757 154.59 184.393 154.051 185.158C153.512 185.922 153.148 186.796 152.986 187.718C152.824 188.639 152.867 189.585 153.112 190.487Z" fill="#9C9CA1"/>
<path d="M399.059 210.367C406.591 210.367 412.697 204.181 412.697 196.551C412.697 188.921 406.591 182.735 399.059 182.735C391.527 182.735 385.421 188.921 385.421 196.551C385.421 204.181 391.527 210.367 399.059 210.367Z" fill="white"/>
<path d="M410.259 171.348C410.259 171.348 413.133 179.896 404.651 183.491L403.566 185.387L408.88 190.629C408.88 190.629 415.43 178.68 414.72 174.436C414.72 174.436 413.706 170.127 410.259 171.348Z" fill="white"/>
<path d="M400.626 210.367C407.889 210.367 413.777 204.479 413.777 197.215C413.777 189.952 407.889 184.064 400.626 184.064C393.363 184.064 387.475 189.952 387.475 197.215C387.475 204.479 393.363 210.367 400.626 210.367Z" fill="#2F80ED"/>
<path d="M414.786 176.378L412.697 172.93L409.655 172.499C410.304 161.148 407.359 157.766 407.359 157.766L406.674 157.7L403.693 157.411L398.086 151.591V149.938C405.965 150.876 410.32 154.618 412.672 159.003C416.829 166.699 414.786 176.378 414.786 176.378Z" fill="#2F80ED"/>
<path opacity="0.1" d="M406.7 155.611V157.7L403.719 157.411L398.111 151.591C398.111 151.591 406.786 153.533 406.7 155.611Z" fill="black" stroke="#4C4981" stroke-miterlimit="10"/>
<path opacity="0.1" d="M414.786 176.378L412.698 172.93V159.023C416.829 166.699 414.786 176.378 414.786 176.378Z" fill="black" stroke="#4C4981" stroke-miterlimit="10"/>
<path d="M376.324 202.621C379.823 200.601 379.672 193.789 375.988 187.407C372.303 181.025 366.479 177.489 362.98 179.509C359.481 181.529 359.631 188.341 363.316 194.723C367.001 201.105 372.825 204.642 376.324 202.621Z" fill="white"/>
<path d="M371.626 189.95C375.312 196.333 379.834 200.597 376.336 202.625C372.838 204.653 362.647 203.639 358.961 197.251C355.275 190.863 358.622 182.041 362.12 180.013C365.618 177.985 367.935 183.552 371.626 189.95Z" fill="#2F80ED"/>
<path opacity="0.1" d="M404.443 143.966C404.443 164.362 390.486 184.018 370.089 184.018C360.294 184.018 350.899 180.127 343.973 173.2C337.046 166.274 333.155 156.879 333.155 147.084C333.155 137.288 337.046 127.894 343.973 120.967C350.899 114.041 360.294 110.149 370.089 110.149C390.486 110.17 404.443 123.564 404.443 143.966Z" fill="black"/>
<path d="M370.089 183.025C390.488 183.025 407.024 166.488 407.024 146.09C407.024 125.692 390.488 109.156 370.089 109.156C349.691 109.156 333.155 125.692 333.155 146.09C333.155 166.488 349.691 183.025 370.089 183.025Z" fill="#AE6E79"/>
<path d="M366.845 129.724C371.241 131.342 373.842 135.884 377.786 138.414C383.363 141.963 390.623 141.045 396.991 139.291C400.54 138.323 404.251 137.142 407.744 138.216C408.258 138.444 408.825 138.525 409.382 138.45C410.142 138.232 410.517 137.39 410.766 136.64C415.085 123.762 413.144 109.176 406.624 97.2615C404.941 94.1891 402.923 91.2182 400.144 89.0837C397.954 87.4056 395.379 86.3054 392.783 85.3675C388.039 83.6637 383.133 82.4524 378.141 81.7526C377.259 81.5924 376.359 81.5634 375.469 81.6664C374.247 81.8641 373.152 82.5232 372.062 83.1113C367.394 85.6139 362.216 87.0201 356.923 87.2231C349.825 87.4918 341.713 85.8187 336.243 90.3715C329.652 95.8318 331.295 106.484 327.021 113.896C324.192 118.799 318.737 122.358 317.839 127.94C317.605 129.646 317.714 131.381 318.159 133.045C320.247 141.634 328.562 148.285 337.424 148.442C338.785 148.546 340.148 148.267 341.359 147.636C342.152 147.095 342.852 146.429 343.432 145.664C349.237 138.789 355.879 125.689 366.845 129.724Z" fill="#444053"/>
<path opacity="0.1" d="M410.766 132.903C410.517 133.654 410.142 134.495 409.382 134.713C408.825 134.788 408.258 134.707 407.744 134.48C404.251 133.405 400.519 134.586 396.996 135.555C390.623 137.309 383.348 138.247 377.791 134.678C373.841 132.143 371.246 127.58 366.845 125.988C355.879 121.932 349.237 135.053 343.417 141.928C342.837 142.693 342.136 143.359 341.343 143.9C340.133 144.531 338.77 144.81 337.409 144.706C328.577 144.549 320.257 137.897 318.143 129.309C318.027 128.802 317.925 128.295 317.849 127.788C317.849 127.833 317.849 127.874 317.824 127.919C317.59 129.626 317.699 131.361 318.143 133.025C320.232 141.613 328.552 148.265 337.409 148.422C338.77 148.526 340.133 148.247 341.343 147.616C342.136 147.075 342.837 146.409 343.417 145.644C349.237 138.769 355.879 125.668 366.845 129.704C371.246 131.321 373.841 135.864 377.791 138.394C383.368 141.943 390.623 141.025 396.996 139.271C400.545 138.303 404.251 137.121 407.744 138.196C408.258 138.424 408.825 138.504 409.382 138.429C410.142 138.211 410.517 137.37 410.766 136.619C412.508 131.35 413.278 125.808 413.037 120.264C412.888 124.564 412.123 128.82 410.766 132.903Z" fill="black"/>
</g>
<defs>
<clipPath id="clip0">
<rect width="580" height="312.977" fill="white"/>
</clipPath>
</defs>
</svg>
